<?xml version="1.0" encoding="UTF-8"?>
<!-- Orange Chef — logo nav (fond sombre) -->
<svg xmlns="http://www.w3.org/2000/svg" viewBox="0 0 200 200" role="img" aria-label="Orange Chef — logo nav">
    <defs>
        <linearGradient id="ringGrad" x1="0" y1="0" x2="1" y2="1">
            <stop offset="0%"   stop-color="#ffb65c"/>
            <stop offset="55%"  stop-color="#ff7a00"/>
            <stop offset="100%" stop-color="#e35800"/>
        </linearGradient>
        <linearGradient id="leafGrad" x1="0" y1="0" x2="1" y2="1">
            <stop offset="0%"   stop-color="#34d399"/>
            <stop offset="100%" stop-color="#059669"/>
        </linearGradient>
    </defs>

    <!-- Anneau -->
    <circle cx="100" cy="110" r="70" fill="none" stroke="url(#ringGrad)" stroke-width="12"/>

    <!-- TOQUE — halo (derrière) -->
    <path d="M66 88 C 66 70, 88 60, 100 68 C 112 60, 134 70, 134 88
           C 150 90, 152 104, 140 110 C 128 116, 114 114, 100 112
           C 86 114, 72 116, 60 110 C 48 104, 50 90, 66 88 Z"
          fill="none" stroke="#0f172a" stroke-opacity=".65" stroke-width="10" stroke-linecap="round" stroke-linejoin="round"/>
    <!-- TOQUE — trait principal -->
    <path d="M66 88 C 66 70, 88 60, 100 68 C 112 60, 134 70, 134 88
           C 150 90, 152 104, 140 110 C 128 116, 114 114, 100 112
           C 86 114, 72 116, 60 110 C 48 104, 50 90, 66 88 Z"
          fill="none" stroke="#ffffff" stroke-width="6.5" stroke-linecap="round" stroke-linejoin="round"/>
    <!-- Bande de la toque (halo + trait) -->
    <rect x="68" y="98" width="64" height="16" rx="8" fill="none"
          stroke="#0f172a" stroke-opacity=".65" stroke-width="10"/>
    <rect x="68" y="98" width="64" height="16" rx="8" fill="none"
          stroke="#ffffff" stroke-width="6.5"/>

    <!-- Tige + feuille -->
    <line x1="142" y1="50" x2="142" y2="62" stroke="#ffffff" stroke-width="3" stroke-linecap="round"/>
    <path d="M148 54 C 162 50, 168 64, 156 74 C 148 80, 142 72, 148 54 Z"
          fill="url(#leafGrad)" stroke="#ffffff" stroke-width="2" stroke-linejoin="round"/>
</svg>
