<?xml version="1.0" encoding="UTF-8"?>
<!-- Orange Chef — Favicon (64x64) -->
<svg xmlns="http://www.w3.org/2000/svg" viewBox="0 0 64 64" width="64" height="64" role="img" aria-label="Orange Chef">
    <defs>
        <!-- Anneau orange -->
        <linearGradient id="ringGrad" x1="0" y1="0" x2="1" y2="1">
            <stop offset="0%"   stop-color="#ffb65c"/>
            <stop offset="55%"  stop-color="#ff7a00"/>
            <stop offset="100%" stop-color="#e35800"/>
        </linearGradient>
        <!-- Feuille -->
        <linearGradient id="leafGrad" x1="0" y1="0" x2="1" y2="1">
            <stop offset="0%"   stop-color="#34d399"/>
            <stop offset="100%" stop-color="#059669"/>
        </linearGradient>
    </defs>

    <!-- Anneau (donut épais, sans traits) -->
    <path d="
    M32,36
    m 0,-22 a 22,22 0 1,1 0,44 a 22,22 0 1,1 0,-44
    m 0,10 a 12,12 0 1,0 0,24 a 12,12 0 1,0 0,-24
  " fill="url(#ringGrad)" fill-rule="evenodd"/>

    <!-- Toque pleine (lisible en 16px) -->
    <path d="M18 26
           C18 18,26 16,32 18
           C38 16,46 18,46 26
           C50 26,52 30,48 32
           C44 34,36 32,32 32
           C28 32,20 34,16 32
           C12 30,14 26,18 26Z"
          fill="#ffffff"/>
    <!-- Bande de la toque -->
    <rect x="22" y="26" width="20" height="8" rx="4" fill="#ffffff"/>

    <!-- Petite feuille -->
    <path d="M48 12 C54 10 58 16 54 20 C52 22 48 20 48 12Z" fill="url(#leafGrad)"/>
</svg>
